<?xml version="1.0" encoding="UTF-8" standalone="no"?>
<!-- Created with Inkscape (http://www.inkscape.org/) -->

<svg
   xmlns:dc="http://purl.org/dc/elements/1.1/"
   xmlns:cc="http://creativecommons.org/ns#"
   xmlns:rdf="http://www.w3.org/1999/02/22-rdf-syntax-ns#"
   xmlns:svg="http://www.w3.org/2000/svg"
   xmlns="http://www.w3.org/2000/svg"
   xmlns:sodipodi="http://sodipodi.sourceforge.net/DTD/sodipodi-0.dtd"
   xmlns:inkscape="http://www.inkscape.org/namespaces/inkscape"
   version="1.0"
   width="958.71454"
   height="495.22052"
   id="svg2"
   inkscape:version="0.47 r22583"
   sodipodi:docname="ZZ.svg">
  <metadata
     id="metadata72">
    <rdf:RDF>
      <cc:Work
         rdf:about="">
        <dc:format>image/svg+xml</dc:format>
        <dc:type
           rdf:resource="http://purl.org/dc/dcmitype/StillImage" />
      </cc:Work>
    </rdf:RDF>
  </metadata>
  <sodipodi:namedview
     pagecolor="#ffffff"
     bordercolor="#666666"
     borderopacity="1"
     objecttolerance="10"
     gridtolerance="10"
     guidetolerance="10"
     inkscape:pageopacity="0"
     inkscape:pageshadow="2"
     inkscape:window-width="1280"
     inkscape:window-height="1004"
     id="namedview70"
     showgrid="false"
     inkscape:zoom="0.35355339"
     inkscape:cx="650.34323"
     inkscape:cy="200.24841"
     inkscape:window-x="-8"
     inkscape:window-y="-8"
     inkscape:window-maximized="1"
     inkscape:current-layer="g2262"
     showguides="true"
     inkscape:guide-bbox="true" />
  <defs
     id="defs4">
    <inkscape:perspective
       sodipodi:type="inkscape:persp3d"
       inkscape:vp_x="0 : 75 : 1"
       inkscape:vp_y="0 : 1000 : 0"
       inkscape:vp_z="225 : 75 : 1"
       inkscape:persp3d-origin="112.5 : 50 : 1"
       id="perspective74" />
    <inkscape:perspective
       id="perspective2833"
       inkscape:persp3d-origin="0.5 : 0.33333333 : 1"
       inkscape:vp_z="1 : 0.5 : 1"
       inkscape:vp_y="0 : 1000 : 0"
       inkscape:vp_x="0 : 0.5 : 1"
       sodipodi:type="inkscape:persp3d" />
    <inkscape:perspective
       id="perspective2846"
       inkscape:persp3d-origin="0.5 : 0.33333333 : 1"
       inkscape:vp_z="1 : 0.5 : 1"
       inkscape:vp_y="0 : 1000 : 0"
       inkscape:vp_x="0 : 0.5 : 1"
       sodipodi:type="inkscape:persp3d" />
    <inkscape:perspective
       id="perspective2859"
       inkscape:persp3d-origin="0.5 : 0.33333333 : 1"
       inkscape:vp_z="1 : 0.5 : 1"
       inkscape:vp_y="0 : 1000 : 0"
       inkscape:vp_x="0 : 0.5 : 1"
       sodipodi:type="inkscape:persp3d" />
    <inkscape:perspective
       id="perspective2872"
       inkscape:persp3d-origin="0.5 : 0.33333333 : 1"
       inkscape:vp_z="1 : 0.5 : 1"
       inkscape:vp_y="0 : 1000 : 0"
       inkscape:vp_x="0 : 0.5 : 1"
       sodipodi:type="inkscape:persp3d" />
    <inkscape:perspective
       id="perspective2885"
       inkscape:persp3d-origin="0.5 : 0.33333333 : 1"
       inkscape:vp_z="1 : 0.5 : 1"
       inkscape:vp_y="0 : 1000 : 0"
       inkscape:vp_x="0 : 0.5 : 1"
       sodipodi:type="inkscape:persp3d" />
    <inkscape:perspective
       id="perspective2898"
       inkscape:persp3d-origin="0.5 : 0.33333333 : 1"
       inkscape:vp_z="1 : 0.5 : 1"
       inkscape:vp_y="0 : 1000 : 0"
       inkscape:vp_x="0 : 0.5 : 1"
       sodipodi:type="inkscape:persp3d" />
    <inkscape:perspective
       id="perspective2913"
       inkscape:persp3d-origin="0.5 : 0.33333333 : 1"
       inkscape:vp_z="1 : 0.5 : 1"
       inkscape:vp_y="0 : 1000 : 0"
       inkscape:vp_x="0 : 0.5 : 1"
       sodipodi:type="inkscape:persp3d" />
    <inkscape:perspective
       id="perspective2928"
       inkscape:persp3d-origin="0.5 : 0.33333333 : 1"
       inkscape:vp_z="1 : 0.5 : 1"
       inkscape:vp_y="0 : 1000 : 0"
       inkscape:vp_x="0 : 0.5 : 1"
       sodipodi:type="inkscape:persp3d" />
    <inkscape:perspective
       id="perspective2943"
       inkscape:persp3d-origin="0.5 : 0.33333333 : 1"
       inkscape:vp_z="1 : 0.5 : 1"
       inkscape:vp_y="0 : 1000 : 0"
       inkscape:vp_x="0 : 0.5 : 1"
       sodipodi:type="inkscape:persp3d" />
    <inkscape:perspective
       id="perspective2835"
       inkscape:persp3d-origin="0.5 : 0.33333333 : 1"
       inkscape:vp_z="1 : 0.5 : 1"
       inkscape:vp_y="0 : 1000 : 0"
       inkscape:vp_x="0 : 0.5 : 1"
       sodipodi:type="inkscape:persp3d" />
    <inkscape:perspective
       id="perspective2841"
       inkscape:persp3d-origin="0.5 : 0.33333333 : 1"
       inkscape:vp_z="1 : 0.5 : 1"
       inkscape:vp_y="0 : 1000 : 0"
       inkscape:vp_x="0 : 0.5 : 1"
       sodipodi:type="inkscape:persp3d" />
    <inkscape:perspective
       id="perspective2880"
       inkscape:persp3d-origin="0.5 : 0.33333333 : 1"
       inkscape:vp_z="1 : 0.5 : 1"
       inkscape:vp_y="0 : 1000 : 0"
       inkscape:vp_x="0 : 0.5 : 1"
       sodipodi:type="inkscape:persp3d" />
    <inkscape:perspective
       id="perspective2893"
       inkscape:persp3d-origin="0.5 : 0.33333333 : 1"
       inkscape:vp_z="1 : 0.5 : 1"
       inkscape:vp_y="0 : 1000 : 0"
       inkscape:vp_x="0 : 0.5 : 1"
       sodipodi:type="inkscape:persp3d" />
    <inkscape:perspective
       id="perspective2906"
       inkscape:persp3d-origin="0.5 : 0.33333333 : 1"
       inkscape:vp_z="1 : 0.5 : 1"
       inkscape:vp_y="0 : 1000 : 0"
       inkscape:vp_x="0 : 0.5 : 1"
       sodipodi:type="inkscape:persp3d" />
  </defs>
  <g
     transform="matrix(0.75,0,0,0.75,1015.2066,12.115747)"
     id="g2262">
    <path
       style="fill:#e8112d;fill-opacity:1"
       d="m -542.375,129.71875 0,58.84375 -253.09375,0 c 0.93979,14.02078 -1.77086,29.38503 1.09375,40.28125 3.1925,18.16814 11.16258,35.87097 17.5,53.5625 l 234.5,0 0,180.125 c 4.32443,1.02931 8.51695,4.91081 10.34375,10.5 0.65022,1.98741 1.30654,3.95724 -0.0312,6.59375 l 1.96875,-0.65625 c 31.91448,0.18899 58.33722,-9.92539 85.71875,-17.5625 l 0,-179 275.09375,0 c -0.35939,-0.81241 -0.79299,-1.58008 -1.3125,-2.28125 -4.6041,-3.99381 -11.85182,-6.0119 -17.125,-8.6875 -6.59167,-3.3448 -11.84658,-6.0307 -18.4375,-9.375 -1.3197,-0.6696 -4.63775,-0.68161 -3.96875,-2 1.37685,-9.2475 30.03287,-49.39169 15.53125,-56.75 -8.57858,-2.6952 -17.78285,-7.40376 -27.03125,-8.78125 -7.92877,-0.7077 -17.93403,9.16974 -25.84375,5.15625 -7.27151,-3.6897 -11.94386,-7.40448 -15.53125,-11.125 l -148.6875,0 -11.8125,0 c -13.7064,8.00919 -28.67629,11.67446 -49.34375,1.1875 -19.7736,-10.0335 16.03469,-25.01785 8.125,-29.03125 -23.07269,-12.99741 -52.21364,-20.0327 -77.65625,-31 z"
       transform="scale(1.3333333,1.3333333)"
       id="rect2178" />
    <g
       id="g2187"
       transform="matrix(3.2666667,0,0,3.1278997,-1147.8134,1.1913741)">
      <path
         style="fill:#f9f9f9;fill-opacity:1;stroke:#e8112d;stroke-width:2.5999999;stroke-miterlimit:4;stroke-opacity:1;stroke-dasharray:none"
         d="m -971.40625,-10.8125 c -7.91985,0.18134 -15.42413,8.0171399 -28.68755,34.15625 l -13.8124,-8.6875 c -0.02,3.30523 0.6261,5.312651 2.5937,7.96875 3.2854,3.32478 7.2644,2.02476 11.2187,4.03125 11.21615,4.033408 21.76667,6.056296 29.6563,13.375 9.85807,9.975368 1.09165,37.047 14.3125,37.125 1.98772,-0.6492 2.05095,-7.275298 4.6875,-5.9375 7.9287,0.707903 13.15818,6.686453 19.75,10.03125 3.95438,2.006497 5.28287,5.999398 9.90625,6.6875 31.6977,6.137798 37.68818,-5.742402 61.96875,24.8125 7.8705,10.6245 3.1539,29.768 13.03125,36.4375 5.2731,2.6757 10.57687,-1.2565 14.53125,0.75 11.21505,4.03301 22.43465,8.08125 29.65625,16.71875 4.81743,6.09548 7.88008,13.77449 8.42514,21.90625 l 251.79361,0 0,-57.44373 c -7.25489,-3.1273 -14.19468,-7.96408 -20.625,-11.96252 -5.9228,-4.6632 -11.15825,-10.65665 -15.09375,-15.96875 -1.2986,-3.974498 2.68545,-8.5944 0.71875,-11.25 -17.0999,-15.3075 -51.5,-9.5625 -51.5,-9.5625 -10.5653,-2.045603 -18.44015,-12.654 -29.65625,-16.6875 -85.1558,-21.659228 -4.00955,4.6059 -49.65625,9.625 -1.3187,-0.669197 -70.6875,-7.6875 -70.6875,-7.6875 -10.5462,-5.351325 -14.43515,-20.580512 -24.3125,-27.25 -3.95528,-2.006971 -46.23845,-3.599673 -48.875,-4.9375 -18.47587,-6.059552 -26.9177,-31.88374 -46.0625,-36.625 -7.26075,-2.02644 -14.57033,5.8645005 -22.5,5.15625 -28.27785,-0.9316095 -39.92808,-15.02976 -50.78125,-14.78125 z M -310,155.3125 c -9.01016,0.10125 -7.4795,27.58369 -18.03125,30 -12.5721,1.9094 -13.7084,-28.5022 -28.25,-29.25 -29.25065,-0.96352 -44.62816,20.68548 -65.01836,32.60027 l 156.6,-0.10027 c -10.72066,-11.11851 -10.20518,-22.27643 -43.33164,-32.875 -0.70089,-0.25204 -1.36807,-0.38175 -1.96875,-0.375 z m -465.47461,127.09375 c 6.35954,17.75327 9.67464,35.49516 6.25586,53.6875 -3.48195,29.72959 -9.373,18.4469 -26.6875,39.5 -6.6501,6.57191 -11.29363,12.509 -16.625,19.75 l 2.625,1.34375 c 7.91062,4.0139 15.15818,6.0302 21.75,9.375 6.59182,3.34481 13.1586,9.99836 20.4375,8.71875 9.26745,-1.9284 10.68883,-14.50195 17.96875,-15.78125 20.52169,-4.5062 40.9372,7.5151 60.75,10.9375 5.941,1.357 13.1816,6.7036 19.8125,3.4375 7.9688,-5.90269 5.4062,-20.4723 13.375,-26.375 5.3122,-3.9354 14.54535,0.74225 21.15625,0.78125 5.293,-0.62977 12.60135,-5.2062 15.21875,-0.5625 3.9153,8.6173 -23.93065,17.714 1.15625,23.8125 1.9867,-0.6495 2.70716,-8.5879 5.34375,-7.25 7.9097,4.0135 11.8218,12.63685 19.0625,17.96875 7.8897,7.3187 30.34575,12.0666 24.34375,20.625 -2.6758,5.2732 -12.59945,5.23805 -11.96875,10.53125 -0.689,4.6235 7.95095,-2.60075 11.90625,-0.59375 3.28481,3.3248 -0.73645,11.243 3.21875,13.25 7.2608,2.0265 15.22675,-4.99593 23.15625,-4.28773 0.28902,0.043 0.55545,-0.0127 0.84375,0.056 l 0,-178.92452 -233.09961,0 z m 331.09961,0 0,177.69952 c 6.65114,-1.8551 13.36261,-2.2563 20.21875,-3.63702 27.1517,-7.7729 66.71905,5.698 97.15625,1.25 3.9754,-1.2985 -4.56285,-7.31205 -6.53125,-9.96875 -3.9344,-5.3117 13.2026,0.086 19.8125,0.125 19.85303,-3.1881 32.65583,-44.76785 57.09375,-40.65625 21.13058,4.0912 45.60227,4.90645 62.03125,21.53125 3.28642,3.3252 -7.96205,5.88896 -9.96875,9.84375 -0.669,1.3183 0.65093,1.98755 1.96875,2.65625 9.8772,6.6697 17.75355,13.99824 28.96875,18.03125 25.0476,12.7095 14.60834,-9.18145 45.65625,-5.03125 35.672175,4.8389 25.47115,54.36674 64.09375,7.65625 29.315025,-38.1715 -57.10092,-70.42145 -52.4375,-76.34375 0.66893,-1.3183 6.60625,0.0557 6.625,-3.25 2.00685,-3.9549 -9.9198,-0.0556 -13.875,-2.0625 -6.591,-3.3444 -10.40705,-28.5026 -5.09375,-32.4375 4.64325,-2.61701 11.86312,2.7235 15.1875,-0.5625 9.3066,-8.53931 12.0164,-20.4358 18.6875,-30.3125 l 1.34375,-2.625 c -7.92968,-0.7082 -13.86352,-2.06835 -16.5,-3.40625 -5.2731,-2.67559 -7.85812,-10.6184 -11.8125,-12.625 -1.31782,-0.6686 -40.99378,-0.92455 -42.3125,-1.59375 -3.43326,-1.74212 -4.35543,-8.93807 -6.71911,-14.28125 l -273.59339,0 z"
         transform="matrix(0.40816326,0,0,0.42627113,351.37145,-0.38088629)"
         id="rect2162"
         sodipodi:nodetypes="ccccccccsccccccccccccccccccccccccccccccccsccccscccscccccccccccccsccssccccccsccccssscc" />
      <path
         style="fill:#e8112d;fill-opacity:1"
         d="m -697.4375,57.25 c -10.63404,-0.124533 22.05857,14.455023 -10.75,18.0625 -0.22738,-0.115388 -2.96192,-0.481857 -6.53125,-0.90625 0.23728,2.757726 0.42149,5.532577 0.5625,8.3125 -11.04425,-0.513632 -21.93278,-1.711576 -32.5625,-3.53125 0.62946,5.101773 1,10.268277 1,15.53125 0,5.262973 -0.37054,10.46073 -1,15.5625 10.62972,-1.81967 21.51825,-3.01762 32.5625,-3.53125 -0.53642,10.57509 -1.7871,21.00933 -3.6875,31.1875 5.32811,-0.60272 10.72229,-0.96875 16.21875,-0.96875 5.49646,0 10.92189,0.36603 16.25,0.96875 -1.9004,-10.17817 -3.15108,-20.61241 -3.6875,-31.1875 11.04425,0.51363 21.93278,1.71158 32.5625,3.53125 -0.62946,-5.10177 -1,-10.299527 -1,-15.5625 0,-5.262973 0.37054,-10.429477 1,-15.53125 -10.62972,1.819674 -21.51825,3.017618 -32.5625,3.53125 0.40714,-8.026507 1.20785,-15.969144 2.40625,-23.78125 -5.44883,-1.148585 -8.84846,-1.664865 -10.78125,-1.6875 z"
         transform="matrix(0.40816326,0,0,0.42627113,351.37145,-0.38088629)"
         id="rect3358" />
    </g>
    <g
       id="g2847"
       transform="matrix(3.2666667,0,0,3.1278997,-1147.8134,392.17888)">
      <path
         style="fill:#e8112d;fill-opacity:1"
         d="m -717.84375,344.78125 c 1.9004,10.17817 3.15108,20.58116 3.6875,31.15625 -11.04425,-0.51363 -21.93278,-1.68033 -32.5625,-3.5 0.62946,5.10177 1,10.26828 1,15.53125 0,3.5019 -0.19861,6.97731 -0.5,10.40625 7.86697,-1.03147 15.70071,0.16704 23.5,2.15625 2.84323,-0.2231 5.69671,-0.39797 8.5625,-0.53125 -0.0495,0.97574 -0.12609,1.93309 -0.1875,2.90625 8.52701,2.61613 16.99367,5.58888 25.34375,7.03125 0.2257,0.0516 0.45815,0.0939 0.6875,0.15625 -0.31412,-3.35081 -0.57833,-6.70944 -0.75,-10.09375 8.75691,0.40726 17.42723,1.23548 25.9375,2.46875 1.40067,-5.03502 2.42116,-10.38642 5.625,-13.9375 -9.9e-4,-0.1877 0,-0.37458 0,-0.5625 0,-5.26297 0.37054,-10.42948 1,-15.53125 -10.62972,1.81967 -21.51825,2.98637 -32.5625,3.5 0.53642,-10.57509 1.7871,-20.97808 3.6875,-31.15625 -5.32811,0.60272 -10.75354,0.96875 -16.25,0.96875 -5.49646,0 -10.89064,-0.36603 -16.21875,-0.96875 z"
         transform="matrix(0.40816326,0,0,0.42627113,351.37145,-125.3809)"
         id="path2851" />
    </g>
    <g
       id="g2822"
       transform="matrix(3.2666667,0,0,3.1278997,-576.1464,392.17888)">
      <path
         style="fill:#e8112d;fill-opacity:1"
         d="m -289.09375,344.78125 c 1.9004,10.17817 3.15108,20.58116 3.6875,31.15625 -11.04425,-0.51363 -21.93278,-1.68033 -32.5625,-3.5 0.62946,5.10177 1,10.26828 1,15.53125 0,5.26297 -0.37054,10.42948 -1,15.53125 10.62972,-1.81967 21.51825,-2.98637 32.5625,-3.5 -0.45353,8.94106 -1.41082,17.76883 -2.84375,26.4375 8.36159,-9.96269 17.12314,-19.59352 28.40625,-19.5 -0.18495,-2.30599 -0.351,-4.61625 -0.46875,-6.9375 11.04425,0.51363 21.93278,1.68033 32.5625,3.5 -0.62946,-5.10177 -1,-10.26828 -1,-15.53125 0,-5.26297 0.37054,-10.42948 1,-15.53125 -10.62972,1.81967 -21.51825,2.98637 -32.5625,3.5 0.53642,-10.57509 1.7871,-20.97808 3.6875,-31.15625 -5.32811,0.60272 -10.75354,0.96875 -16.25,0.96875 -5.49646,0 -10.89064,-0.36603 -16.21875,-0.96875 z"
         transform="matrix(0.40816326,0,0,0.42627113,176.37135,-125.3809)"
         id="path2826" />
    </g>
    <g
       id="g2892"
       transform="matrix(3.2666667,0,0,3.1278997,-576.1464,1.1913741)" />
  </g>
</svg>
